# ProBuilder 4.5.2
# https://unity3d.com/unity/features/worldbuilding/probuilder
# 18/11/2022 4:18:31 PM

mtllib ./Cube_(1)_001.mtl
o Cube (1)_001

g Cube (1)_001
v -4.149252 2.95 -19.184
v 1.456122 2.95 -19.184
v 1.456122 2.95 -5.696002
v -4.149252 2.95 -5.696002
v 18.38845 2.95 -19.184
v 18.38845 2.95 -5.696002
v -15.36 2.95 -19.184
v -9.754626 2.95 -19.184
v -9.754627 2.95 -5.695096
v -15.36 2.95 -5.695096
v -15.36 2.95 -32.672
v -9.754626 2.95 -32.672
v -15.36 2.95 -46.16
v -9.754625 2.95 -46.16
v -4.149251 2.95 -46.16
v -4.149252 2.95 -32.672
v 1.456123 2.95 -46.16
v 1.456122 2.95 -32.672
v 18.38845 2.95 -46.16
v 18.38845 2.95 -32.672
v 18.38845 2.95 3.169123
v 1.456123 2.95 3.169123
v 18.38845 2.95 7.791998
v 1.456122 2.95 7.791997
v -4.14925 2.95 3.169123
v -4.149252 2.95 7.791997
v -9.754627 2.95 3.169123
v -9.754626 2.95 7.791997
v -15.44259 2.95 7.791997
v -15.44259 2.95 3.169123
v -12.59861 2.95 3.169123
v -9.754627 1.489332 -1.572089
v -12.59861 1.489332 -1.572089
v -9.754627 1.489332 -6.16135
v -12.59861 1.489332 -6.16135
v -15.35509 -0.02190742 -6.16135
v -15.35509 -0.02190742 -1.572089
v -12.59861 2.95 -1.509438
v -15.44259 2.95 -1.509438

vt 4.149252 -19.184
vt -1.456122 -19.184
vt -1.456122 -5.696002
vt 4.149252 -5.696002
vt -18.38845 -19.184
vt -18.38845 -5.696002
vt 15.36 -19.184
vt 9.754626 -19.184
vt 9.754627 -5.695096
vt 15.36 -5.695096
vt 15.36 -32.672
vt 9.754626 -32.672
vt 15.36 -46.16
vt 9.754625 -46.16
vt 4.149251 -46.16
vt 4.149252 -32.672
vt -1.456123 -46.16
vt -1.456122 -32.672
vt -18.38845 -46.16
vt -18.38845 -32.672
vt -18.38845 3.169123
vt -1.456123 3.169123
vt -18.38845 7.791998
vt -1.456122 7.791997
vt 4.14925 3.169123
vt 4.149252 7.791997
vt 9.754627 3.169123
vt 9.754626 7.791997
vt 15.44259 7.791997
vt 15.44259 3.169123
vt 12.59861 3.169123
vt 9.754627 3.897201
vt 12.59861 3.897201
vt 9.754627 -1.063912
vt 12.59861 -1.063912
vt 9.754627 -1.572089
vt 12.59861 -1.572089
vt 9.754627 -6.16135
vt 12.59861 -6.16135
vt 10.33128 -6.16135
vt 10.33128 -1.572089
vt 13.47485 -6.16135
vt 13.47485 -1.572089
vt 12.59861 -1.509438
vt 15.44259 -1.509438

vn 0 1 0
vn 0 0.9556751 -0.2944234
vn -0.48074 0.8768632 0

usemtl MAT_Stone_[ath
f 31/31/1 30/30/1 29/29/1
f 28/28/1 27/27/1 31/31/1
f 29/29/1 28/28/1 31/31/1
f 3/3/1 2/2/1 1/1/1
f 1/1/1 4/4/1 3/3/1
f 6/6/1 5/5/1 2/2/1
f 2/2/1 3/3/1 6/6/1
f 9/9/1 8/8/1 7/7/1
f 7/7/1 10/10/1 9/9/1
f 4/4/1 1/1/1 8/8/1
f 8/8/1 9/9/1 4/4/1
f 8/8/1 12/12/1 11/11/1
f 11/11/1 7/7/1 8/8/1
f 14/14/1 13/13/1 11/11/1
f 11/11/1 12/12/1 14/14/1
f 15/15/1 14/14/1 12/12/1
f 12/12/1 16/16/1 15/15/1
f 1/1/1 16/16/1 12/12/1
f 12/12/1 8/8/1 1/1/1
f 17/17/1 15/15/1 16/16/1
f 16/16/1 18/18/1 17/17/1
f 20/20/1 19/19/1 17/17/1
f 17/17/1 18/18/1 20/20/1
f 5/5/1 20/20/1 18/18/1
f 18/18/1 2/2/1 5/5/1
f 2/2/1 18/18/1 16/16/1
f 16/16/1 1/1/1 2/2/1
f 21/21/1 6/6/1 3/3/1
f 3/3/1 22/22/1 21/21/1
f 23/23/1 21/21/1 22/22/1
f 22/22/1 24/24/1 23/23/1
f 22/22/1 3/3/1 4/4/1
f 4/4/1 25/25/1 22/22/1
f 24/24/1 22/22/1 25/25/1
f 25/25/1 26/26/1 24/24/1
f 25/25/1 4/4/1 9/9/1
f 9/9/1 27/27/1 25/25/1
f 26/26/1 25/25/1 27/27/1
f 27/27/1 28/28/1 26/26/1
f 33/35/2 31/33/2 27/32/2
f 27/32/2 32/34/2 33/35/2
f 35/39/1 33/37/1 32/36/1
f 32/36/1 34/38/1 35/39/1
f 37/43/3 33/41/3 35/40/3
f 35/40/3 36/42/3 37/43/3
f 39/45/1 30/30/1 31/31/1
f 31/31/1 38/44/1 39/45/1

usemtl New_Material

